HIERARCHY
ROOT Hips
{
	OFFSET -14.64140 90.27770 -84.91600
	CHANNELS 6 Xposition Yposition Zposition Zrotation Xrotation Yrotation
	JOINT Spine
	{
		OFFSET 0.00000 13.20850 -1.60436
		CHANNELS 3 Zrotation Xrotation Yrotation
		JOINT Spine1
		{
			OFFSET 0.00000 8.61716 0.00000
			CHANNELS 3 Zrotation Xrotation Yrotation
			JOINT Spine2
			{
				OFFSET 0.00000 8.61717 0.00000
				CHANNELS 3 Zrotation Xrotation Yrotation
				JOINT Spine3
				{
					OFFSET 0.00000 8.61717 0.00000
					CHANNELS 3 Zrotation Xrotation Yrotation
					JOINT Neck
					{
						OFFSET 0.00000 11.07920 1.10792
						CHANNELS 3 Zrotation Xrotation Yrotation
						JOINT Neck1
						{
							OFFSET 0.00000 7.08032 0.00000
							CHANNELS 3 Zrotation Xrotation Yrotation
							JOINT Head
							{
								OFFSET 0.00000 7.08031 0.00000
								CHANNELS 3 Zrotation Xrotation Yrotation
								End site
								{
									OFFSET 0.00000 0.00000 0.00000
								}
							}
						}
					}
					JOINT RightShoulder
					{
						OFFSET -0.01000 7.91373 5.19711
						CHANNELS 3 Zrotation Xrotation Yrotation
						JOINT RightArm
						{
							OFFSET -18.41580 0.00000 0.00000
							CHANNELS 3 Zrotation Xrotation Yrotation
							JOINT RightForeArm
							{
								OFFSET -29.11090 0.00000 0.00000
								CHANNELS 3 Zrotation Xrotation Yrotation
								JOINT RightHand
								{
									OFFSET -24.65040 0.00000 0.00000
									CHANNELS 3 Zrotation Xrotation Yrotation
									JOINT RightHandThumb1
									{
										OFFSET -5.35114 -0.85590 3.97906
										CHANNELS 3 Zrotation Xrotation Yrotation
										JOINT RightHandThumb2
										{
											OFFSET -4.52789 0.00000 0.00000
											CHANNELS 3 Zrotation Xrotation Yrotation
											JOINT RightHandThumb3
											{
												OFFSET -2.46976 0.00000 0.00000
												CHANNELS 3 Zrotation Xrotation Yrotation
												End site
												{
													OFFSET 0.00000 0.00000 0.00000
												}
											}
										}
									}
									JOINT RightHandIndex1
									{
										OFFSET -14.26970 0.00000 2.88139
										CHANNELS 3 Zrotation Xrotation Yrotation
										JOINT RightHandIndex2
										{
											OFFSET -5.48836 0.00000 0.00000
											CHANNELS 3 Zrotation Xrotation Yrotation
											JOINT RightHandIndex3
											{
												OFFSET -3.01859 0.00000 0.00000
												CHANNELS 3 Zrotation Xrotation Yrotation
												End site
												{
													OFFSET 0.00000 0.00000 0.00000
												}
											}
										}
									}
									JOINT RightHandMiddle1
									{
										OFFSET -14.26970 0.00000 -0.09147
										CHANNELS 3 Zrotation Xrotation Yrotation
										JOINT RightHandMiddle2
										{
											OFFSET -6.17441 0.00000 0.00000
											CHANNELS 3 Zrotation Xrotation Yrotation
											JOINT RightHandMiddle3
											{
												OFFSET -3.56743 0.00000 0.00000
												CHANNELS 3 Zrotation Xrotation Yrotation
												End site
												{
													OFFSET 0.00000 0.00000 0.00000
												}
											}
										}
									}
									JOINT RightHandRing1
									{
										OFFSET -12.69180 0.00000 -3.06433
										CHANNELS 3 Zrotation Xrotation Yrotation
										JOINT RightHandRing2
										{
											OFFSET -5.62556 0.00000 0.00000
											CHANNELS 3 Zrotation Xrotation Yrotation
											JOINT RightHandRing3
											{
												OFFSET -3.56744 0.00000 0.00000
												CHANNELS 3 Zrotation Xrotation Yrotation
												End site
												{
													OFFSET 0.00000 0.00000 0.00000
												}
											}
										}
									}
									JOINT RightHandPinky1
									{
										OFFSET -11.11390 0.00000 -6.03719
										CHANNELS 3 Zrotation Xrotation Yrotation
										JOINT RightHandPinky2
										{
											OFFSET -4.52789 0.00000 0.00000
											CHANNELS 3 Zrotation Xrotation Yrotation
											JOINT RightHandPinky3
											{
												OFFSET -2.46976 0.00000 0.00000
												CHANNELS 3 Zrotation Xrotation Yrotation
												End site
												{
													OFFSET 0.00000 0.00000 0.00000
												}
											}
										}
									}
								}
							}
						}
					}
					JOINT LeftShoulder
					{
						OFFSET 0.01000 7.91373 5.19711
						CHANNELS 3 Zrotation Xrotation Yrotation
						JOINT LeftArm
						{
							OFFSET 18.41580 0.00000 0.00000
							CHANNELS 3 Zrotation Xrotation Yrotation
							JOINT LeftForeArm
							{
								OFFSET 29.11090 0.00000 0.00000
								CHANNELS 3 Zrotation Xrotation Yrotation
								JOINT LeftHand
								{
									OFFSET 24.65040 0.00000 0.00000
									CHANNELS 3 Zrotation Xrotation Yrotation
									JOINT LeftHandThumb1
									{
										OFFSET 5.35114 -0.85590 3.97906
										CHANNELS 3 Zrotation Xrotation Yrotation
										JOINT LeftHandThumb2
										{
											OFFSET 4.52789 0.00000 0.00000
											CHANNELS 3 Zrotation Xrotation Yrotation
											JOINT LeftHandThumb3
											{
												OFFSET 2.46977 0.00000 0.00000
												CHANNELS 3 Zrotation Xrotation Yrotation
												End site
												{
													OFFSET 0.00000 0.00000 0.00000
												}
											}
										}
									}
									JOINT LeftHandIndex1
									{
										OFFSET 14.26970 0.00000 2.88139
										CHANNELS 3 Zrotation Xrotation Yrotation
										JOINT LeftHandIndex2
										{
											OFFSET 5.48836 0.00000 0.00000
											CHANNELS 3 Zrotation Xrotation Yrotation
											JOINT LeftHandIndex3
											{
												OFFSET 3.01859 0.00000 0.00000
												CHANNELS 3 Zrotation Xrotation Yrotation
												End site
												{
													OFFSET 0.00000 0.00000 0.00000
												}
											}
										}
									}
									JOINT LeftHandMiddle1
									{
										OFFSET 14.26970 0.00000 -0.09147
										CHANNELS 3 Zrotation Xrotation Yrotation
										JOINT LeftHandMiddle2
										{
											OFFSET 6.17440 0.00000 0.00000
											CHANNELS 3 Zrotation Xrotation Yrotation
											JOINT LeftHandMiddle3
											{
												OFFSET 3.56744 0.00000 0.00000
												CHANNELS 3 Zrotation Xrotation Yrotation
												End site
												{
													OFFSET 0.00000 0.00000 0.00000
												}
											}
										}
									}
									JOINT LeftHandRing1
									{
										OFFSET 12.69180 0.00000 -3.06433
										CHANNELS 3 Zrotation Xrotation Yrotation
										JOINT LeftHandRing2
										{
											OFFSET 5.62556 0.00000 0.00000
											CHANNELS 3 Zrotation Xrotation Yrotation
											JOINT LeftHandRing3
											{
												OFFSET 3.56744 0.00000 0.00000
												CHANNELS 3 Zrotation Xrotation Yrotation
												End site
												{
													OFFSET 0.00000 0.00000 0.00000
												}
											}
										}
									}
									JOINT LeftHandPinky1
									{
										OFFSET 11.11390 0.00000 -6.03719
										CHANNELS 3 Zrotation Xrotation Yrotation
										JOINT LeftHandPinky2
										{
											OFFSET 4.52789 0.00000 0.00000
											CHANNELS 3 Zrotation Xrotation Yrotation
											JOINT LeftHandPinky3
											{
												OFFSET 2.46976 0.00000 0.00000
												CHANNELS 3 Zrotation Xrotation Yrotation
												End site
												{
													OFFSET 0.00000 0.00000 0.00000
												}
											}
										}
									}
								}
							}
						}
					}
					JOINT pCube4
					{
						OFFSET 0.00000 10.91090 1.10792
						CHANNELS 3 Zrotation Xrotation Yrotation
						End site
						{
							OFFSET 0.00000 0.00000 0.00000
						}
					}
				}
			}
		}
	}
	JOINT RightUpLeg
	{
		OFFSET -9.98441 0.00000 0.00000
		CHANNELS 3 Zrotation Xrotation Yrotation
		JOINT RightLeg
		{
			OFFSET 0.00000 -42.11790 0.00000
			CHANNELS 3 Zrotation Xrotation Yrotation
			JOINT RightFoot
			{
				OFFSET 0.00000 -45.00020 -0.00001
				CHANNELS 3 Zrotation Xrotation Yrotation
				JOINT RightForeFoot
				{
					OFFSET 0.00000 -3.74820 0.00000
					CHANNELS 3 Zrotation Xrotation Yrotation
					JOINT RightToeBase
					{
						OFFSET 0.00000 0.06325 14.43120
						CHANNELS 3 Zrotation Xrotation Yrotation
						End site
						{
							OFFSET 0.00000 0.00000 0.00000
						}
					}
				}
			}
		}
	}
	JOINT LeftUpLeg
	{
		OFFSET 9.98441 0.00000 0.00000
		CHANNELS 3 Zrotation Xrotation Yrotation
		JOINT LeftLeg
		{
			OFFSET 0.00000 -42.11800 0.00000
			CHANNELS 3 Zrotation Xrotation Yrotation
			JOINT LeftFoot
			{
				OFFSET 0.00000 -45.00070 0.00000
				CHANNELS 3 Zrotation Xrotation Yrotation
				JOINT LeftForeFoot
				{
					OFFSET 0.00000 -3.74824 0.00000
					CHANNELS 3 Zrotation Xrotation Yrotation
					JOINT LeftToeBase
					{
						OFFSET 0.00000 0.06325 14.43110
						CHANNELS 3 Zrotation Xrotation Yrotation
						End site
						{
							OFFSET 0.00000 0.00000 0.00000
						}
					}
				}
			}
		}
	}
}
MOTION
Frames: 4
Frame Time: 0.050000
-0.01079452135878524 -0.018501069432818033 0.02602637172529599 -0.02178392293643463 -0.03375855920877005 -0.048329696097263314 -3.9746132379048906 -0.2592932353152376 -0.6599585064380656 -0.985017140768594 3.4982827920487582 0.38916293502556654 -1.4530129030356622 -2.343787575866212 -0.8719501446222436 -0.5402112110834075 0.03297397427516438 -0.7778613128536441 0.4651329452876153 12.726744963963998 0.16396864125628932 0.16218041694913776 0.0034067551909328433 -1.1657348342599159 0.18289098689208153 -14.895376967410089 -0.06426015866869186 -6.935499915164937 2.4778966262458333 -13.77376500537461 68.52484671497498 0.10174807045790896 23.18725368912056 41.955442254512356 10.978201095357633 92.25466363020708 23.460875139012227 -0.3745784415991769 -5.460931550417849 4.523602701422097 -0.1170041941496939 -1.6384524406972265 0.008205452573733996 0.023171950044795206 -56.251842276401185 -0.0028248414819549857 -0.004847582401136714 -56.27641911286141 -38.74382231005052 0.0458026134308303 0.044373610592584385 -0.0005832582021834944 0.025439339786247735 0.004833987160937282 -0.02474418024386577 0.02560774246471679 -0.03838303654388294 -36.69565088055035 -0.012994157249763572 -0.025631465996396985 0.0021458085203954974 0.021850045463531087 -0.013685983852939908 0.024688210232193517 0.0066361547936879955 -0.029047765434763433 -19.757196700048667 0.026413543465855782 0.033011572711076964 -0.012724780426684786 -0.044823131888313196 0.008646465173319696 0.006670664334622403 -0.016577450168492523 0.017793286480792207 24.072949783691296 0.011765912165163735 0.018343147497787638 28.8934984825067 0.03030368449664983 0.0492391720753402 28.83900759537483 -0.02076764181697766 -0.023516540753478407 5.043349405293104 1.2683492566382342 11.577444506662289 -67.9159512905488 28.37774577944635 -7.151222764870977 -2.6959330964196235 -2.6033583148038266 -49.09613925110131 -15.829802109554995 3.256554137864466 0.8746089846117748 -0.500125221741033 0.08118931310376701 -8.128592972651173 0.031124891081248947 -0.02918521101308558 44.55877729187138 -0.04281710371059272 -0.005464376430719566 44.5931470207094 12.500961682745766 0.019901733325137547 -0.04931248688667269 -0.002545629664529337 0.04556705379027918 -0.022840471390798672 -0.014088518375413911 0.0021028030922786386 -0.031105906470849265 11.100783365447326 0.014500539483092196 0.03926202878075664 -0.04868973532430803 -0.03760929518276377 0.028115438557484454 0.03642792883027825 0.04628685791351072 0.01203967813252315 4.749311984376429 0.012127881311813573 0.02588067049184504 0.037670534185671074 -0.003637648877454152 -0.019928610592480443 0.012757284384254601 0.04583532209643383 0.021240577057683015 -5.569897622420907 -0.006083138129178516 -0.04264996187932185 -6.671082975837691 -0.006859376902444063 -0.022724495656194717 -6.713279476844119 -0.030268068486635203 -0.033071557788369434 0.008937776486519326 0.02472867494437272 0.021994752711532103 8.049285343524003 3.537331617780947 -19.17900440815741 -0.0432591408534116 10.40229511468724 -0.012731669984383975 -5.628406593947337 -15.621065789136033 3.211385289301894 0.023424112318243973 0.01808791959344591 -0.022277575064428557 -0.03786539702150945 4.661475243769873 -0.03181321394963581 12.4221706117787 -8.243575490140477 6.861106384655612 -0.04963192809440344 46.36051429134128 0.02948705297123284 -4.33454054985298 -14.766970290879046 -3.8255527720890674 0.03952718622141369 -0.03543022728379156 -0.00438990026889881 -0.0002509141117637563 -10.75925921213978 -0.027477338240675022 
-0.02090523583347702 0.04135275400441739 0.028291022045296405 -0.045425730632775406 0.03146511611529645 -0.027248505878979493 -3.8516401407200775 -0.4245583131447156 -0.6466793179482317 -0.8955585942414883 3.5528461278887815 0.33664421605191897 -1.379928685533224 -2.357673169942238 -0.8387553449357968 -0.4902985915463761 -0.010571681126962579 -0.8143110996375716 0.5142001234404849 12.722792357882872 0.07765884975093398 0.09438812711005841 -0.019655085238672133 -1.4019663503223512 0.18515011869755568 -14.862643225064444 -0.0720267153334773 -6.832904165980929 2.4922900831011847 -13.934636255613215 68.06005056635607 -0.5833737325960657 22.335841974120417 43.10933058814549 11.019188065655975 91.73746889980181 23.00733561498422 -0.362734250206352 -5.453907604856218 4.482806794712163 -0.14776689695019712 -1.632320179903689 -0.02449363087400557 -0.007790902435984874 -56.270456552699976 -0.03047233297831379 0.02166120311006252 -56.247243820393734 -38.73631406190026 -0.015022201181457764 -0.019072225453951853 0.015098557066032171 -0.034366575942246555 0.041593936044928996 -0.046762924959213435 0.03453198146236418 0.0240811272371611 -36.67232427704527 0.03851414117308896 -0.007402883880936361 -0.03361015184874189 0.026404953006435066 -0.0017869937423214799 0.032343927998432026 0.016149354615918685 -0.009961784560141287 -19.769667372929376 0.0007151943279768232 -0.00545649207082814 0.006392308667464863 -0.004125764728375725 -0.00014336475658103281 -0.025229741325973835 -0.017392015375361232 -0.02383393093473628 24.06747021698778 -0.009389765038622279 0.012202636416993916 28.867230639286998 -0.006164975705889378 -0.028138172132963296 28.821394425276463 0.010923572918175743 0.0028487251183122383 4.715438840915834 1.2589824005901815 11.623676148916523 -68.76517767283893 28.387431836206108 -5.592086359465866 -2.935851677678747 -2.792463172463772 -46.68959555253722 -15.540954966629183 3.9425273572234296 0.31159740573958966 -0.4501425797109636 0.043057551256741655 -8.12286247615938 0.002868766800938214 0.008898970342674912 44.608517522458484 -0.02249806158977678 0.011965787231212797 44.59516292677151 12.439871602528482 -0.033797633423656194 -0.016105453245820547 0.042701609160867036 -0.009034085177976823 -0.010578361566577484 -0.03362138098535325 -0.033222428515255434 0.011647284948046848 11.065295715401604 -0.026421601747032872 -0.03169281586554225 0.012707497801744284 0.008735184263579835 -0.019785053283423306 0.01782398396752996 -0.04120670439404563 -0.019611473460309427 4.74901016601976 -0.031181437307011183 0.0032219081949739843 0.003407391389495211 0.03866871759277535 -0.025019442329441782 0.04392234165796785 0.0336282855349633 0.03942849330494398 -5.619432129722428 -0.02555656911078925 -0.025026295060874577 -6.696672185968215 -0.048992425987537516 0.04755305579094999 -6.738916529444578 0.016804010793247018 0.03392868804046482 -0.013144740331589678 0.022538125164186035 0.01781516951449352 8.05741217232231 3.469230578719718 -19.17961445460539 0.007253169397643884 10.384306539182347 0.006655198667855188 -5.575248928498099 -15.665900066524822 3.1741274111288 -0.015964920272389417 0.0002795778414032143 -0.03339823114899445 -0.00216404785882412 4.682995273863483 0.022958406397801834 12.439557144430328 -8.249526582003226 6.900600772511349 0.04165205485663647 46.420896340895084 0.017477644471055376 -4.3467673037081 -14.726428115137645 -3.856695645859139 0.000766724008360792 -0.034473260500900944 0.009508146341530372 -0.03143298243728207 -10.776547351790661 0.040672612569128186 
0.0034014965639502823 0.009750364526712171 -0.031309555717888723 0.03078678555200235 0.0004677666960958639 0.03455917175749672 -3.897547779006577 -0.5330856821675882 -0.6120981161022091 -0.9509031410052776 3.5250999945731927 0.35722307207753007 -1.4145901753867665 -2.3396200142752552 -0.8668845045075709 -0.3932974583366736 0.06748581687157443 -0.7996379809278887 0.583935215395271 12.737995427968677 -0.00976549612523444 0.19478721894768022 -0.01163575044911266 -1.551652596877657 0.2826340424087911 -14.703364464381721 -0.0930460462002705 -6.813676250653622 2.4807008600522726 -14.136634137501598 67.58785715339157 -1.334495592863667 21.422109362515933 43.392066631271675 11.163120296729279 91.04950753805049 22.628126064610164 -0.3590361980400202 -5.477966107833074 4.555630704511719 -0.13498851330717787 -1.5644819399139713 -0.030595479265495454 -0.0036088523708214027 -56.20850897239273 0.029613951570276912 -0.043153642813252784 -56.218769084005146 -38.79358162209205 -0.027044038207203313 0.0173969721639337 -0.02524863390183179 -0.035930770079424856 -0.005888101757340605 -0.011971774307346517 -0.006801438101917064 -0.014980736505933671 -36.678244027566876 -0.014899514261100614 -0.006288727135200226 -0.019930261010689575 0.049190189505598184 -2.356776004996084e-05 0.03845487281380941 -0.0032753913800318054 -0.003133256860607871 -19.757295268035474 -0.03400809157632891 0.0384489171053256 -0.03368861343936669 0.04202685566891872 -0.01988860120727769 -0.011587065782777784 0.0201649663477494 0.04408021475507567 24.103212273529994 0.001477844022597361 0.007553392201529745 28.902655658928698 -0.006733243490230029 0.008386432080436726 28.870048222057342 -0.016861575125955874 -0.04969813203138472 4.4642293751236615 1.1467045837242826 11.760561840950368 -69.12341593292541 28.46630586820516 -4.588717164111559 -3.0519966840592807 -2.8373605311823407 -44.92626135480241 -15.30323512218397 4.294015474459117 -0.013557449828452415 -0.4320845694185232 0.0671812197826658 -8.114675042365407 0.0352994855834071 0.008302448822201571 44.59085359524296 0.017336969089077756 0.0022581165982641332 44.575373204388754 12.420513737416794 -0.03415921094664065 0.03638170997000182 -0.04566458351343049 -0.0040177562494001975 0.01685627127747831 -0.016685965442155237 -0.04959074822856188 -0.01603975074403297 11.118491994037969 0.020098758842450014 0.028939800992498176 -0.04983917434076545 -0.0019975598895280726 0.02116000901517137 0.045237255990122696 -0.02537727139560678 -0.011025922233394913 4.7415727800233105 -0.0025278683738398765 0.026620924078898916 0.045262014709964674 -0.01782499078234012 0.00930934655870088 -0.004549654851580967 0.020970911581285234 0.022648327535657698 -5.608818671115727 -0.03501022625954479 -0.02338401349278553 -6.740102554374186 0.02675670387144169 -0.010728427049522352 -6.7442073433029 -0.014487803379012475 0.04668199710245313 -0.04892718643504899 0.019041107004700995 0.00926310344282821 8.061740116567735 3.4857922737697855 -19.20544623741991 0.011204677281626366 10.392219456454155 -0.018014802242487808 -5.586824553395358 -15.669187505592948 3.149566190534979 0.03503490432309505 -0.020119961602268446 -0.016183550664136556 -0.04551027631457507 4.6814154129109005 0.0032316034968221797 12.458635000107455 -8.274185415444345 6.9141558888370245 -0.016579756074278917 46.37780555083637 -0.04617614667582991 -4.320243514153294 -14.712466158281513 -3.8476886924113423 -0.03809526458855654 -0.0349451920048293 0.021600585263222054 -0.009285014522525689 -10.714850145622254 -0.036992001062051375 
0.030137021860157345 -0.03894989695824303 0.012508715976681753 -0.04563738501080042 -0.03500766300020141 -0.012931999717163332 -3.8974069040234713 -0.6528654898810541 -0.6295278789315957 -0.9787433205955033 3.5007994962886295 0.40340614087416726 -1.400146308066002 -2.3861325560014817 -0.8314777587339326 -0.35927408181476805 0.08583146389026414 -0.8033634449138715 0.5774315183761978 12.719583509288135 -0.08346086987046558 0.16077231212001505 0.12500427342476517 -1.6504431651161386 0.22321373291653912 -14.538735204246247 -0.09165860256537213 -6.743221540722631 2.454275377635552 -14.224856915139291 67.01683199599246 -1.908153953345167 20.715167090176408 42.81733241758576 10.947641505180112 90.39936711689384 22.271255446951088 -0.4027632519848122 -5.397949929414741 4.530615830907006 -0.09136422892920013 -1.597132009405576 0.015224691004697852 -0.02163133823376845 -56.27266694382773 -0.027355458787630665 0.025514608791214893 -56.2082352189193 -38.80645160125538 -0.049689085107971875 0.04952372283753964 0.01508641770477206 -0.01278487329308187 0.02379262960556155 0.03445613667311536 -0.0035479622149000327 0.017580379653035407 -36.669945190054406 -0.025730977024802024 -0.012251816614694327 0.04583749347078269 0.001569939195102844 -0.012412831539605916 0.009414400247892828 0.03188803202278386 0.034353130356466366 -19.76426033373349 -0.015864928648714825 -0.005000741376616331 0.028891945496622176 0.04414877545995415 -0.019322915754097923 -0.0032891794167461802 -0.019052663547586317 0.01914997255657242 24.08316035145541 0.003082116488024003 -0.004700358951059508 28.839530937859713 0.04099497745767081 -0.016866091571293245 28.839184436300602 0.009791779593077506 -0.03953706609084701 4.375253553227058 1.1586838044695185 11.800647827035728 -69.12904909221416 28.247421978328145 -4.05796583262172 -3.3058137249176163 -3.0987451565389184 -44.30340761365872 -14.950702245042871 4.397030522512459 -0.10429652813746021 -0.4908867710527895 0.0764636410958873 -8.083668809062447 -0.04468785550272143 -0.031492073819144255 44.571196328576804 -0.028249327640206916 0.007470660399080467 44.535642526849884 12.490821193209714 -0.02725019289602221 -0.014886858001155003 0.001261368150441589 -0.017685508299955646 -0.006324978461171651 -0.047808185054015524 0.04581236209079465 0.0400220148058301 11.097437136215303 0.04702664251470036 -0.04433106553962408 -0.002684126674513085 -0.008729531142982744 -0.002903007593005321 0.03688441012685825 -0.0409865031153722 -0.04452201790412177 4.794286018681997 -0.03951445556223875 0.008042369394112677 -0.026839158887791578 0.00974486100805516 -0.029121263383091615 -0.026635206898745024 -0.017983230030098014 0.032365187609320126 -5.580521140743272 -0.0011124534325746773 0.02020931340202302 -6.7572279345955995 0.04212720833688199 0.00011834916684007172 -6.752051238460107 -0.03369489370202841 -0.006664635100216487 0.04446243655424822 0.0025520612532682328 0.009603075836145116 8.029560856796444 3.4864158693129825 -19.18128619520422 0.005026304364298215 10.357258501358837 -0.015060686688425747 -5.580709615007927 -15.61959924042079 3.1752386228002405 0.0311508717826738 0.034250796672326174 0.015656688143561335 -0.02065822297063421 4.6731932449873534 -0.040367339213218736 12.481140108312474 -8.192852327800336 6.858233941831922 -0.02543859539106757 46.3543463711138 0.044086703639705585 -4.337880088508527 -14.773546553234922 -3.801061561846358 0.027435773574654466 0.026815553881804628 0.030302597955226485 0.0403995954972859 -10.775312105578774 0.009806029013453184 
